<svg width="30" height="30" viewBox="0 0 30 30" fill="none" xmlns="http://www.w3.org/2000/svg">
<path d="M3.70763 11.8359C3.54953 11.8374 3.39387 11.7969 3.25646 11.7187C3.15567 11.6621 3.06719 11.5859 2.99619 11.4946C2.9252 11.4034 2.87312 11.2989 2.84301 11.1873C2.81289 11.0756 2.80534 10.9591 2.82079 10.8445C2.83625 10.7299 2.8744 10.6196 2.93302 10.5199C4.06271 8.63437 7.49982 4.2334 14.9998 4.2334C18.25 4.2334 21.1006 5.08711 23.4684 6.76992C25.4172 8.15098 26.5094 9.71426 27.0297 10.4672C27.0957 10.5621 27.142 10.6692 27.166 10.7823C27.1899 10.8954 27.191 11.0121 27.1692 11.1257C27.1474 11.2392 27.103 11.3472 27.0388 11.4433C26.9746 11.5394 26.8918 11.6217 26.7953 11.6854C26.5981 11.8157 26.3579 11.8642 26.1256 11.8204C25.8932 11.7767 25.6871 11.6441 25.5508 11.451C24.6092 10.0969 21.7381 5.97656 14.9998 5.97656C8.42267 5.97656 5.44904 9.76816 4.48048 11.3941C4.40266 11.5299 4.28999 11.6425 4.15413 11.7201C4.01826 11.7978 3.86412 11.8378 3.70763 11.8359Z" fill="black"/>
<path d="M18.7785 29.0625C18.7037 29.0634 18.6291 29.055 18.5565 29.0373C13.116 27.6897 11.0846 22.251 11.002 22.0248L10.9891 21.975C10.9445 21.818 9.85293 18.0885 11.5287 15.9041C12.2969 14.908 13.4652 14.3971 15.008 14.3971C16.4424 14.3971 17.4772 14.843 18.1885 15.7658C18.7744 16.5194 19.0088 17.4487 19.2356 18.344C19.7119 20.2084 20.0559 21.1875 22.0357 21.2883C22.9053 21.3323 23.4766 20.8237 23.8006 20.3906C24.6766 19.21 24.8289 17.2852 24.1686 15.586C23.3201 13.3928 20.309 9.25784 14.9998 9.25784C12.7334 9.25784 10.651 9.98616 8.98106 11.3549C7.59883 12.4887 6.50372 14.0895 5.97637 15.7348C4.99844 18.7981 6.28106 23.6133 6.29336 23.6573C6.32331 23.7693 6.33052 23.8862 6.31456 24.0011C6.2986 24.116 6.25979 24.2266 6.20043 24.3262C6.14107 24.4259 6.06236 24.5127 5.96893 24.5814C5.8755 24.6502 5.76925 24.6995 5.65645 24.7266C5.42856 24.7872 5.18599 24.7561 4.98074 24.64C4.77549 24.5239 4.62388 24.332 4.5584 24.1055C4.49981 23.8858 3.12989 18.75 4.25957 15.2098C5.49004 11.3737 9.2875 7.50647 15.0016 7.50647C17.6424 7.50647 20.1373 8.40413 22.2197 10.0992C23.8322 11.4176 25.1494 13.1883 25.8385 14.9584C26.7145 17.2184 26.4795 19.7549 25.2414 21.4119C24.4164 22.517 23.2416 23.0947 21.9402 23.0321C18.55 22.8621 17.9406 20.4955 17.4965 18.7694C17.0395 16.9987 16.7471 16.1449 15.0016 16.1449C14.043 16.1449 13.3697 16.4086 12.9508 16.9547C12.3795 17.7018 12.335 18.8696 12.3982 19.7168C12.4398 20.3071 12.5399 20.8918 12.6971 21.4623C12.8365 21.8139 14.6523 26.267 19.0012 27.3446C19.1136 27.3712 19.2196 27.4199 19.313 27.4878C19.4064 27.5558 19.4854 27.6416 19.5454 27.7403C19.6053 27.8391 19.6451 27.9487 19.6623 28.0629C19.6795 28.1772 19.6739 28.2937 19.6457 28.4057C19.5926 28.5948 19.4792 28.7614 19.3226 28.88C19.166 28.9986 18.9749 29.0627 18.7785 29.0625Z" fill="black"/>
<path d="M11.7954 28.6605C11.6735 28.6608 11.5527 28.6365 11.4404 28.5891C11.3281 28.5416 11.2264 28.4721 11.1415 28.3845C8.96418 26.0994 7.73253 23.5441 7.26906 20.349V20.332C7.0089 18.2168 7.38976 15.222 9.25597 13.1631C10.6335 11.6437 12.57 10.8715 15.0017 10.8715C17.8775 10.8715 20.1374 12.2086 21.5466 14.7322C22.5691 16.5656 22.7718 18.3926 22.7771 18.4676C22.7878 18.5832 22.7756 18.6998 22.7412 18.8107C22.7068 18.9216 22.6508 19.0247 22.5765 19.1139C22.5022 19.2032 22.411 19.2769 22.3082 19.3309C22.2054 19.3849 22.0929 19.418 21.9773 19.4285C21.7439 19.4538 21.5099 19.3864 21.3259 19.2407C21.1418 19.095 21.0224 18.8827 20.9935 18.6498C20.8391 17.5536 20.4844 16.4951 19.947 15.5273C18.8548 13.6002 17.1931 12.6205 14.9952 12.6205C13.0968 12.6205 11.6114 13.1918 10.5896 14.3197C9.11652 15.9457 8.83175 18.4506 9.0339 20.1076C9.43996 22.933 10.5257 25.1806 12.4429 27.1892C12.5229 27.2725 12.5854 27.371 12.6266 27.4788C12.6678 27.5867 12.6869 27.7017 12.6827 27.8171C12.6785 27.9325 12.6512 28.0459 12.6024 28.1505C12.5535 28.2551 12.4842 28.3489 12.3984 28.4261C12.2331 28.5759 12.0184 28.6594 11.7954 28.6605Z" fill="black"/>
<path d="M21.826 26.1434C19.9217 26.1434 18.3027 25.616 17.0072 24.5678C14.4045 22.4707 14.1127 19.0553 14.0998 18.9111C14.0815 18.6745 14.1579 18.4403 14.3122 18.2601C14.4665 18.0798 14.6862 17.9682 14.9228 17.9499C15.1594 17.9316 15.3935 18.008 15.5738 18.1623C15.7541 18.3166 15.8656 18.5363 15.884 18.7729C15.8904 18.8232 16.1506 21.617 18.1568 23.226C19.3439 24.174 20.9307 24.5502 22.8859 24.3305C23.1196 24.3021 23.355 24.3674 23.5407 24.5122C23.7264 24.6569 23.8472 24.8692 23.8768 25.1027C23.8896 25.2181 23.8792 25.3349 23.8464 25.4462C23.8136 25.5575 23.759 25.6612 23.6857 25.7512C23.6124 25.8412 23.5219 25.9157 23.4195 25.9704C23.3171 26.025 23.2048 26.0587 23.0893 26.0695C22.6699 26.1185 22.2481 26.1431 21.826 26.1434ZM23.3307 2.85879C22.5877 2.37539 19.9533 0.9375 14.9998 0.9375C9.8002 0.9375 7.15938 2.52598 6.5752 2.92969C6.53661 2.95337 6.5005 2.98085 6.46738 3.01172C6.46389 3.0151 6.45934 3.01717 6.45449 3.01758C6.36121 3.09903 6.28635 3.19942 6.23493 3.31208C6.1835 3.42474 6.15668 3.54706 6.15625 3.6709C6.15785 3.78698 6.18235 3.90161 6.22833 4.00821C6.27431 4.11481 6.34087 4.2113 6.42421 4.29213C6.50754 4.37296 6.60601 4.43655 6.71396 4.47926C6.82192 4.52197 6.93724 4.54295 7.05332 4.54102C7.23938 4.54089 7.42094 4.48384 7.57363 4.37754C7.59883 4.35879 9.87168 2.68887 15.0016 2.68887C20.1314 2.68887 22.4166 4.35293 22.4412 4.36523C22.5972 4.48092 22.7867 4.54262 22.9809 4.54102C23.097 4.5428 23.2124 4.52162 23.3204 4.47869C23.4284 4.43577 23.5268 4.37194 23.61 4.29088C23.6933 4.20982 23.7597 4.11311 23.8055 4.00632C23.8512 3.89952 23.8755 3.78474 23.8768 3.66855C23.8768 3.49452 23.8248 3.32445 23.7275 3.18016C23.6302 3.03588 23.492 2.92396 23.3307 2.85879Z" fill="black"/>
</svg>
